<?xml version="1.0" encoding="UTF-8" standalone="no"?>
<!DOCTYPE svg PUBLIC "-//W3C//DTD SVG 1.1//EN" "http://www.w3.org/Graphics/SVG/1.1/DTD/svg11.dtd">
<svg width="40" height="40" viewBox="0 0 3000 3000" version="1.1" xmlns="http://www.w3.org/2000/svg" xmlns:xlink="http://www.w3.org/1999/xlink" xml:space="preserve" xmlns:serif="http://www.serif.com/" style="fill-rule:evenodd;clip-rule:evenodd;stroke-linejoin:round;stroke-miterlimit:2;">
    <g>
        <g transform="matrix(2.593976,0,0,2.593976,-2118.591628,-2095.04727)">
            <circle cx="1395.681" cy="1293.733" r="391.267" style="fill:rgb(50,81,142);"/>
        </g>
        <g transform="matrix(5.200618,0,0,5.200618,-1164.008491,-966.667747)">
            <path d="M487.895,433.241C489.488,434.758 503.53,447.684 508.029,453.491C508.09,457.436 502.11,460.987 462.379,502.383C448.32,517.031 406.563,559.717 401.697,564.691C377.442,589.487 390.51,595.268 384.529,614.509C374.239,647.617 323.147,647.108 329.922,640.901C332.045,638.957 354.525,618.364 354.36,614.495C354.29,612.832 350.061,597.958 348.06,595.93C347.248,595.106 330.395,587.276 325.844,591.831C306.313,611.38 301.143,618.886 300.293,613.552C295.433,583.046 314.377,558.79 337.507,558.621C366.826,558.407 366.43,553.318 410.601,509.603C482.111,438.83 485.263,433.335 487.895,433.241Z" style="fill:rgb(239,190,30);"/>
        </g>
        <g transform="matrix(5.200618,0,0,5.200618,-1164.008491,-966.667747)">
            <path d="M515.305,405.328C515.14,403.023 521.966,398.931 551.292,369.3C600.27,319.811 599.871,319.479 681.084,246.07C685.091,242.447 687.099,217.771 713.554,212.883C733.906,209.122 724.788,246.376 700.412,253.225C690.232,256.085 691.428,258.284 660.66,292.643C651.409,302.973 588.319,373.426 542.321,419.31C542.212,419.419 538.192,425.827 536.449,426.243C526.811,417.337 524.465,414.828 515.305,405.328Z" style="fill:rgb(241,190,31);"/>
        </g>
        <g transform="matrix(5.200618,0,0,5.200618,-1164.008491,-966.667747)">
            <path d="M374.448,265.397C380.623,260.227 416.995,229.611 465.473,219.374C577.672,195.68 644.165,263.035 650.472,265.386C647.988,268.678 637.064,277.417 633.89,279.623C512.566,185.177 396.589,271.204 391.283,280.613C388.18,276.94 375.334,270.808 374.448,265.397Z" style="fill:rgb(38,60,110);"/>
        </g>
        <g transform="matrix(5.200618,0,0,5.200618,-1164.008491,-966.667747)">
            <path d="M351.5,287.56C356.971,289.752 364.551,302.943 365.555,304.377C360.813,312.043 295.81,384.482 332.287,489.567C339.778,511.148 355.436,535.36 364.5,545.499C357.109,552.798 342.1,553.748 341.42,552.823C319.844,523.47 307.339,488.048 303.886,470.417C284.903,373.477 330.286,314.186 351.5,287.56Z" style="fill:rgb(38,60,110);"/>
        </g>
        <g transform="matrix(5.200618,0,0,5.200618,-1164.008491,-966.667747)">
            <path d="M673.302,287.56C673.567,287.955 674.565,288.929 680.041,295.872C685.027,302.194 713.183,337.896 721.82,387.435C739.079,486.435 685.07,547.768 683.895,552.087C670.818,553.715 662.023,546.701 660.503,545.489C674.678,524.385 714.907,480.564 699.467,389.506C694.198,358.433 674.909,321.242 658.657,304.787C671.383,289.503 671.587,288.116 673.302,287.56Z" style="fill:rgb(37,60,110);"/>
        </g>
        <g transform="matrix(5.200618,0,0,5.200618,-1164.008491,-966.667747)">
            <path d="M398.723,577.582C421.916,597.38 520.596,652.099 622.909,579.92C624.57,578.748 624.394,578.675 625.955,577.366C635.368,588.3 633.54,599.121 632.982,601.023C630.659,601.506 518.537,682.178 392.483,600.73C389.319,595.583 392.58,584.85 398.723,577.582Z" style="fill:rgb(39,61,111);"/>
        </g>
        <g transform="matrix(5.200618,0,0,5.200618,-1164.008491,-966.667747)">
            <path d="M492.883,431.246C490.25,431.34 482.111,438.83 410.601,509.603C366.43,553.318 366.826,558.407 337.507,558.621C314.377,558.79 295.433,583.046 300.293,613.552C301.143,618.886 306.313,611.38 325.844,591.831C330.395,587.276 347.248,595.106 348.06,595.93C350.061,597.958 354.29,612.832 354.36,614.495C354.525,618.364 332.045,638.957 329.922,640.901C323.147,647.108 374.239,647.617 384.529,614.509C390.51,595.268 377.442,589.487 401.697,564.691C406.563,559.717 448.32,517.031 462.379,502.383C502.11,460.987 509.587,452.448 509.526,448.503C510.993,450.469 517.58,455.795 515.302,458.244C502.212,472.317 404.509,569.367 398.723,577.582C392.58,584.85 392.687,601.206 392.432,601.457C392.256,601.63 392.334,601.673 392.251,605.488C391.41,644.251 341.862,658.309 318.722,646.15C313.753,643.54 348.952,617.32 347.199,611.582C344.076,601.365 344.398,599.47 332.561,597.127C327.782,596.181 313.581,614.094 300.405,626.371C296.408,630.095 288.203,604.279 296.989,582.698C310.068,550.573 335.994,552.489 340.332,552.271C346.705,552.993 356.111,551.8 364.5,545.499C371.362,540.727 423.204,487.616 467.23,444.207C472.766,438.749 482.04,428.082 487.954,426.243C490.712,425.385 490.398,428.574 492.883,431.246Z"/>
        </g>
        <g transform="matrix(5.200618,0,0,5.200618,-1164.008491,-966.667747)">
            <path d="M633.89,279.623C637.064,277.417 655.428,260.615 674.453,243.445C681.081,237.463 678.646,228.465 688.864,218.881C715.187,194.191 741.938,209.374 727.083,238.278C717.485,256.951 700.734,259.858 699.431,260.279C695.241,261.633 671.383,289.503 658.657,304.787C627.687,338.061 629.508,339.679 552.156,418.227C548.436,422.004 541.644,429.753 537.706,430.574C535.872,430.956 536.219,427.883 534.953,425.744C536.695,425.328 542.212,419.419 542.321,419.31C588.319,373.426 651.409,302.973 660.66,292.643C691.428,258.284 690.232,256.085 700.412,253.225C724.788,246.376 733.906,209.122 713.554,212.883C687.099,217.771 685.091,242.447 681.084,246.07C599.871,319.479 600.27,319.811 551.292,369.3C521.966,398.931 515.137,405.517 515.302,407.822C513.931,406.385 507.427,405.509 512.386,400.41C604.457,305.71 626.546,287.879 633.89,279.623Z"/>
        </g>
        <g transform="matrix(5.200618,0,0,5.200618,-1164.008491,-966.667747)">
            <path d="M350.837,244.113C372.754,264.158 388.18,276.94 391.283,280.613C418.639,307.021 420.09,305.358 519.948,407.115C582.003,470.351 642.574,529.185 653.366,539.668C657.757,543.933 657.867,543.681 660.503,545.489C662.023,546.701 686.622,552.432 689.499,552.529C729.832,553.892 738.517,609.932 726.311,626.325C723.775,629.732 697.67,595.841 692.586,596.987C677.06,600.489 679.553,604.609 677.584,611.522C676.453,615.494 694.176,630.688 706.186,643.741C710.335,648.251 678.598,657.172 653.732,641.143C628.9,625.136 635.368,588.3 625.955,577.366C616.266,565.22 547.575,495.378 540.659,488.346C376.782,321.721 379.863,318.803 365.555,304.377C364.551,302.943 349.986,285.97 332.008,265.911C322.843,255.685 318.915,261.403 308.803,252.146C280.591,226.318 294.959,197.488 320.383,208.769C347.293,220.71 341.207,235.307 350.837,244.113Z"/>
        </g>
        <g transform="matrix(5.200618,0,0,5.200618,-1164.008491,-966.667747)">
            <path d="M725.106,604.497C724.856,609.286 725.55,618.775 720.416,613.585C719.183,612.338 719.184,612.435 704.909,598.086C698.709,591.853 699.149,588.782 690.633,590.991C682.029,593.223 676.059,593.661 673.734,601.571C670.022,614.197 669.179,614.907 672.601,618.397C694.994,641.239 697.084,643.022 694.453,643.38C661.913,647.807 637.201,625.456 638.47,602.499C639.739,579.544 636.705,578.796 591.632,532.373C382.304,316.784 357.944,286.988 337.996,263.044C330.849,254.466 330.206,255.141 323.643,253.109C296.45,244.692 288.736,199.019 322.372,216.75C339.839,225.958 339.217,241.982 342.709,245.3C375.391,276.363 391.994,286.615 468.145,363.841C471.147,366.885 648.699,545.609 656.794,551.077C681.698,567.904 699.37,547.12 718.045,577.786C724.392,588.208 725.009,602.288 725.106,604.497Z" style="fill:rgb(240,190,30);"/>
        </g>
    </g>
    <g transform="matrix(0.711194,0,0,0.711194,685.69163,1488.921107)">
        <g transform="matrix(692.195696,0,0,692.195696,2065.168332,1966)">
        </g>
        <text x="253px" y="1966px" style="font-family:'SpaceGrotesk-Light', 'Space Grotesk';font-weight:300;font-size:692.196px;stroke:white;stroke-width:5.57px;">DRUN</text>
    </g>
</svg>
